<svg width="28" height="28" viewBox="0 0 28 28" fill="none" xmlns="http://www.w3.org/2000/svg">
<circle cx="14" cy="14" r="14" fill="#EEDFEB"/>
<g clip-path="url(#clip0_1322_50322)">
<path d="M16.6711 16.5714C18.3737 13.8998 18.1597 14.2331 18.2087 14.1634C18.8286 13.2891 19.1562 12.2601 19.1562 11.1875C19.1562 8.34313 16.8481 6 14 6C11.1612 6 8.84375 8.3385 8.84375 11.1875C8.84375 12.2594 9.17825 13.3153 9.81844 14.2014L11.3288 16.5714C9.71397 16.8196 6.96875 17.5591 6.96875 19.1875C6.96875 19.7811 7.35619 20.627 9.20194 21.2862C10.4907 21.7465 12.1947 22 14 22C17.3758 22 21.0312 21.0478 21.0312 19.1875C21.0312 17.5588 18.2893 16.8201 16.6711 16.5714ZM10.6015 13.6858C10.5964 13.6777 10.591 13.6698 10.5854 13.6621C10.0527 12.9292 9.78125 12.0607 9.78125 11.1875C9.78125 8.84319 11.6689 6.9375 14 6.9375C16.3262 6.9375 18.2188 8.84403 18.2188 11.1875C18.2188 12.0621 17.9525 12.9012 17.4486 13.6147C17.4034 13.6743 17.639 13.3083 14 19.0184L10.6015 13.6858ZM14 21.0625C10.3127 21.0625 7.90625 19.9787 7.90625 19.1875C7.90625 18.6558 9.14275 17.7814 11.8828 17.4406L13.6047 20.1426C13.6908 20.2776 13.8398 20.3594 14 20.3594C14.1601 20.3594 14.3092 20.2776 14.3953 20.1426L16.1172 17.4406C18.8572 17.7814 20.0938 18.6558 20.0938 19.1875C20.0938 19.9719 17.709 21.0625 14 21.0625Z" fill="#A62159"/>
<path d="M14 8.84375C12.7077 8.84375 11.6562 9.89516 11.6562 11.1875C11.6562 12.4798 12.7077 13.5312 14 13.5312C15.2923 13.5312 16.3438 12.4798 16.3438 11.1875C16.3438 9.89516 15.2923 8.84375 14 8.84375ZM14 12.5938C13.2246 12.5938 12.5938 11.9629 12.5938 11.1875C12.5938 10.4121 13.2246 9.78125 14 9.78125C14.7754 9.78125 15.4062 10.4121 15.4062 11.1875C15.4062 11.9629 14.7754 12.5938 14 12.5938Z" fill="#A62159"/>
</g>
<defs>
<clipPath id="clip0_1322_50322">
<rect width="16" height="16" fill="white" transform="translate(6 6)"/>
</clipPath>
</defs>
</svg>
